#tb 0: 1/1000
#media_type 0: audio
#codec_id 0: pcm_s16le
#sample_rate 0: 1000
#channel_layout_name 0: mono
0,          0,          0,      100,      200, 0x00000000
0,        100,        100,      200,      400, 0x7f19d696
0,        300,        300,      100,      200, 0x20f16453
0,        400,        400,      100,      200, 0xdebe6681
0,        500,        500,       93,      186, 0x2f516890
0,        593,        593,      110,      220, 0xd13770cf
0,        703,        703,      108,      216, 0x7b456bbc
0,        811,        811,      108,      216, 0x32ad6a62
0,        919,        919,      148,      296, 0x86782577
0,       1067,       1067,      225,      450, 0xdf6ec2e4
0,       1292,       1292,       99,      198, 0x96756e4e
0,       1391,       1391,       99,      198, 0x01b96eae
0,       1490,       1490,      110,      220, 0x1daf626b
0,       1600,       1600,      109,      218, 0xf8c46d40
0,       1709,       1709,      108,      216, 0x185d64e6
0,       1817,       1817,      107,      214, 0xe25172ad
0,       1924,       1924,       19,       38, 0x29cd1017
